<?xml version="1.0" encoding="UTF-8"?>
<svg version="1.1" xmlns="http://www.w3.org/2000/svg" width="186" height="176">
<path d="M0 0 C4.93561428 1.16132101 7.65538314 4.23640823 11.1875 7.75 C12.08984375 8.63816406 12.9921875 9.52632812 13.921875 10.44140625 C16.35992624 12.86223962 18.78036682 15.29847297 21.1875 17.75 C24.34734356 16.37316185 26.22254518 14.81553383 28.5 12.25 C31.79667424 8.8756739 34.36943196 7.28534089 39.1875 6.75 C43.29477181 8.76099106 46.28339064 11.56703704 49.52856445 14.75292969 C50.03648026 15.24930939 50.54439606 15.74568909 51.06770325 16.2571106 C52.73441144 17.88969953 54.39328975 19.52993236 56.05078125 21.171875 C56.90444306 22.01518246 56.90444306 22.01518246 57.77535057 22.87552643 C60.78309124 25.84752402 63.78471005 28.82555014 66.78149414 31.80859375 C69.87458418 34.88509094 72.98806857 37.94005681 76.10668659 40.99064255 C78.50585354 43.34503925 80.88928785 45.71489451 83.26872826 48.08921051 C84.40997554 49.22256753 85.55709085 50.35004776 86.71013832 51.4713974 C88.32153769 53.04135903 89.90935854 54.63200361 91.4934082 56.22949219 C92.40210159 57.12867371 93.31079498 58.02785522 94.24702454 58.95428467 C96.71546428 62.51065781 96.77410269 64.50304245 96.1875 68.75 C95.05491638 70.77655029 95.05491638 70.77655029 93.39624023 72.46386719 C92.75266571 73.1355896 92.10909119 73.80731201 91.4460144 74.49938965 C90.70070465 75.24209106 89.9553949 75.98479248 89.1875 76.75 C88.35864288 77.60839478 87.52978577 78.46678955 86.67581177 79.35119629 C83.75463425 82.36545333 80.80606345 85.35050466 77.84765625 88.328125 C77.04482114 89.1370734 77.04482114 89.1370734 76.22576714 89.9623642 C73.39896457 92.8098677 70.56901148 95.65419755 67.73657227 98.49609375 C64.82880086 101.41497324 61.93291231 104.3453584 59.03943729 107.27840042 C56.79406327 109.54999563 54.53977526 111.81258686 52.28304863 114.07289886 C51.2116603 115.14912874 50.1436247 116.22870799 49.07917976 117.31180573 C36.70047586 129.89407343 36.70047586 129.89407343 27.9921875 131.24609375 C27.02539062 131.22675781 26.05859375 131.20742187 25.0625 131.1875 C24.09054688 131.18621094 23.11859375 131.18492187 22.1171875 131.18359375 C10.04028638 129.39621238 0.33527811 116.10831658 -7.97338867 107.8293457 C-9.63344848 106.17910147 -11.30390726 104.53985098 -12.97460938 102.90039062 C-27.4326158 88.58791561 -27.4326158 88.58791561 -28 78.375 C-27.47671045 68.25806872 -21.4871591 62.1218484 -14.640625 55.3828125 C-13.9582074 54.70322479 -13.27578979 54.02363708 -12.57269287 53.32345581 C-10.40730651 51.16920055 -8.23504614 49.02203208 -6.0625 46.875 C-4.58677892 45.40931784 -3.11151354 43.94317671 -1.63671875 42.4765625 C1.96610194 38.89570834 5.57510116 35.32119036 9.1875 31.75 C8.24579518 30.64062265 7.30253742 29.53256343 6.35864258 28.42504883 C5.83353592 27.80785477 5.30842926 27.19066071 4.76741028 26.55476379 C2.58469776 24.06140668 0.24609019 21.75102199 -2.125 19.4375 C-7.6679171 14.02714893 -7.6679171 14.02714893 -8.1875 9.4375 C-7.8125 5.75 -7.8125 5.75 -5.6875 2.8125 C-2.8125 0.75 -2.8125 0.75 0 0 Z M37.1875 27.75 C35.55073743 29.7100281 35.55073743 29.7100281 34.1875 31.75 C35.4559375 33.0184375 35.4559375 33.0184375 36.75 34.3125 C39.05932987 37.07322862 39.1875 37.58495922 39.1875 41.4375 C37.71405539 46.31828528 37.71405539 46.31828528 35.1875 47.75 C30.86398012 48.31045628 28.89045227 48.2286058 25.25 45.75 C24.2290625 44.76 24.2290625 44.76 23.1875 43.75 C19.29190412 45.33423189 16.66635592 47.99747257 13.765625 50.94140625 C13.26077576 51.44671371 12.75592651 51.95202118 12.23577881 52.47264099 C11.17450128 53.53692989 10.11564545 54.60363849 9.05908203 55.67260742 C7.43446675 57.3155675 5.80190222 58.95029617 4.16796875 60.58398438 C3.13754601 61.61931932 2.10758165 62.6551107 1.078125 63.69140625 C0.58757629 64.18306778 0.09702759 64.67472931 -0.40838623 65.18128967 C-2.78178575 67.13227208 -2.78178575 67.13227208 -3.8125 69.75 C6.02745972 69.86582665 15.8672574 69.95468106 25.70775986 70.00906086 C30.27709778 70.03516006 34.84596948 70.0705635 39.41503906 70.12719727 C43.8241255 70.18150631 48.23276342 70.2114181 52.64215851 70.22438622 C54.32474073 70.23362818 56.00729827 70.25167589 57.68968964 70.27865028 C60.04594546 70.31492803 62.40034598 70.31994621 64.75683594 70.31762695 C65.45311096 70.33560333 66.14938599 70.35357971 66.86676025 70.37210083 C69.07043282 70.40247958 69.07043282 70.40247958 72.1875 69.75 C74.67759443 67.36764167 74.67759443 67.36764167 76.1875 64.75 C70.96172903 59.47367591 65.72825621 54.20508483 60.48925781 48.94189453 C58.70653197 47.14908761 56.9256021 45.35449301 55.14648438 43.55810547 C52.59450562 40.98197101 50.03621697 38.41225508 47.4765625 35.84375 C46.67755524 35.03442017 45.87854797 34.22509033 45.05532837 33.39123535 C44.31471161 32.65046753 43.57409485 31.90969971 42.81103516 31.14648438 C42.15817535 30.48918335 41.50531555 29.83188232 40.83267212 29.15466309 C39.29453976 27.53355711 39.29453976 27.53355711 37.1875 27.75 Z M-3.8125 86.75 C1.36610186 92.79170217 6.66371559 98.47741766 12.25 104.125 C13.13494141 105.03894531 14.01988281 105.95289062 14.93164062 106.89453125 C15.79080078 107.76207031 16.64996094 108.62960938 17.53515625 109.5234375 C18.30867432 110.31153809 19.08219238 111.09963867 19.87915039 111.91162109 C22.55204291 114.04032344 23.74972702 114.91471456 27.1875 114.75 C29.58923376 112.89783344 31.50925045 111.15148268 33.58203125 108.9765625 C34.17424973 108.37822601 34.7664682 107.77988953 35.37663269 107.16342163 C37.26554231 105.24754519 39.13232724 103.31156134 41 101.375 C42.27666568 100.07681658 43.55464575 98.77992436 44.83398438 97.484375 C50.6257424 92.53734283 50.6257424 92.53734283 54.1875 86.75 C35.0475 86.75 15.9075 86.75 -3.8125 86.75 Z " fill="#2663E6" transform="translate(47.8125,15.25)"/>
<path d="M0 0 C2.77683704 0.1000662 3.91735255 0.24447874 6.3125 1.75 C8.50419341 4.92417666 10.10864163 8.23858765 11.76171875 11.71875 C13.10576171 14.33751565 14.62003486 16.6576347 16.3125 19.0625 C20.5194076 25.26443594 21.62966282 30.55734723 20.6640625 37.9453125 C19.34801167 43.87707782 16.23073981 48.05033222 11.125 51.375 C5.16520417 54.46526451 0.60349554 55.22687646 -5.9375 53.625 C-12.71619458 50.74044912 -17.35420613 47.06835655 -20.1875 40.1875 C-22.39323248 27.95571077 -16.98908983 19.88465718 -10.55859375 9.98828125 C-9.43089374 8.23786059 -8.33964279 6.46344583 -7.28515625 4.66796875 C-5.01095451 0.97002852 -4.49306393 0.43481264 0 0 Z M-0.875 26.375 C-3.01070963 28.59285231 -3.82061394 29.91815707 -4.1875 33 C-4.09581212 35.56006707 -4.09581212 35.56006707 -1.875 37.375 C0.72780568 37.05458603 0.72780568 37.05458603 3.125 36.375 C4.16627245 33.0618604 4.31074123 31.77301692 2.8125 28.5625 C2.255625 27.840625 1.69875 27.11875 1.125 26.375 C0.465 26.375 -0.195 26.375 -0.875 26.375 Z " fill="#2663E6" transform="translate(141.875,103.625)"/>
<path d="M0 0 C4.39024645 0.36585387 6.83122233 2.00726553 10 5 C10.33 5.99 10.66 6.98 11 8 C10.01 8 9.02 8 8 8 C8.185625 8.598125 8.37125 9.19625 8.5625 9.8125 C9 12 9 12 8 15 C7.34 15 6.68 15 6 15 C6 15.66 6 16.32 6 17 C6.99 16.67 7.98 16.34 9 16 C8.67 16.99 8.34 17.98 8 19 C-1.37974684 15.87341772 -1.37974684 15.87341772 -4 12 C-3.75 9.25 -3.75 9.25 -3 7 C-4.32 6.34 -5.64 5.68 -7 5 C-6.67 4.01 -6.34 3.02 -6 2 C-4.7934375 1.7834375 -4.7934375 1.7834375 -3.5625 1.5625 C-1.07896294 1.25864751 -1.07896294 1.25864751 0 0 Z " fill="#2563EA" transform="translate(120,59)"/>
<path d="M0 0 C0 3.10551666 -0.5393715 4.35261084 -2 7 C-11.87460788 7.04627591 -21.7491901 7.08184499 -31.6238842 7.10362434 C-36.20876766 7.11407566 -40.79357711 7.12825935 -45.37841797 7.15087891 C-49.80042374 7.17255936 -54.22235819 7.18455846 -58.64441299 7.18975449 C-60.33417001 7.19345889 -62.02392298 7.20069237 -63.71364975 7.21146011 C-66.07464889 7.22591143 -68.4353507 7.22798064 -70.79638672 7.22705078 C-71.49985229 7.23424133 -72.20331787 7.24143188 -72.92810059 7.24884033 C-77.77189568 7.22810432 -77.77189568 7.22810432 -80 5 C-78.58512299 4.99453156 -78.58512299 4.99453156 -77.1416626 4.98895264 C-68.2541514 4.95201786 -59.36698718 4.89426209 -50.47974014 4.81609726 C-45.91063242 4.77658102 -41.34171861 4.74441301 -36.77246094 4.72900391 C-32.36316445 4.71386445 -27.95440092 4.67946771 -23.54534149 4.63169098 C-21.86287823 4.61684907 -20.18033888 4.60895738 -18.49781036 4.60811615 C-16.14151633 4.60575307 -13.78670315 4.57872959 -11.43066406 4.54589844 C-10.73438904 4.5509288 -10.03811401 4.55595917 -9.32073975 4.56114197 C-5.8490603 4.486254 -4.25391606 4.20958121 -1.5355835 1.96588135 C-1.02884094 1.3171405 -0.52209839 0.66839966 0 0 Z " fill="#3864C9" transform="translate(124,80)"/>
<path d="M0 0 C0.33 0 0.66 0 1 0 C0.96519531 0.845625 0.93039063 1.69125 0.89453125 2.5625 C0.72798335 9.54165018 1.06441531 14.65913707 4 21 C4.33 21.99 4.66 22.98 5 24 C5.99 24 6.98 24 8 24 C8 24.99 8 25.98 8 27 C8.66 27 9.32 27 10 27 C10 27.66 10 28.32 10 29 C10.66 29 11.32 29 12 29 C13.375 30.3984375 13.375 30.3984375 15 32.375 C19.37943323 37.54143497 24.17031617 42.25777524 29 47 C28.67 47.66 28.34 48.32 28 49 C24.66366783 45.73845628 21.33779993 42.46670124 18.02075195 39.18554688 C16.8936105 38.07338672 15.76377805 36.96394638 14.63110352 35.85742188 C-1.61225058 19.97948951 -1.61225058 19.97948951 -2.1875 9.625 C-2.00196601 6.0380095 -1.29918276 3.32915583 0 0 Z " fill="#3A63C7" transform="translate(22,84)"/>
<path d="M0 0 C0.33 0 0.66 0 1 0 C1.18175781 0.60328125 1.36351562 1.2065625 1.55078125 1.828125 C3.38522648 7.88577992 3.38522648 7.88577992 7 13 C9.6666419 14.33332095 11.16680303 13.67102033 14 13 C14 16 14 19 14 22 C14.66 22 15.32 22 16 22 C17.625 24 17.625 24 19 26 C16 26 16 26 14.20654297 24.56298828 C13.55830566 23.90540527 12.91006836 23.24782227 12.2421875 22.5703125 C11.53449219 21.85746094 10.82679687 21.14460938 10.09765625 20.41015625 C9.36417969 19.65605469 8.63070312 18.90195312 7.875 18.125 C7.13378906 17.37863281 6.39257812 16.63226563 5.62890625 15.86328125 C-0.95861706 9.17941391 -0.95861706 9.17941391 -1.125 4.4375 C-1 1 -1 1 0 0 Z " fill="#3166DA" transform="translate(41,20)"/>
<path d="M0 0 C3.47956513 2.23049047 4.82645059 3.40342392 6 7.4375 C6 11.37108373 5.41868244 12.95425175 3 16 C0.04335481 17.4783226 -2.74229737 17.06032783 -6 17 C-5.01 16.67 -4.02 16.34 -3 16 C-2.67 15.01 -2.34 14.02 -2 13 C-1.01 13 -0.02 13 1 13 C0.34 12.34 -0.32 11.68 -1 11 C-1.33 11 -1.66 11 -2 11 C-2 9.35 -2 7.7 -2 6 C-0.68 6.33 0.64 6.66 2 7 C2 6.34 2 5.68 2 5 C1.01 4.67 0.02 4.34 -1 4 C-0.67 2.68 -0.34 1.36 0 0 Z " fill="#2B60DA" transform="translate(82,47)"/>
<path d="M0 0 C2.91807891 0.05721723 3.9518767 0.1554178 6.4375 1.8125 C8.73919324 5.1006332 10.84681108 8.51251054 12.1875 12.3125 C11.8575 12.9725 11.5275 13.6325 11.1875 14.3125 C9.2075 14.3125 7.2275 14.3125 5.1875 14.3125 C5.5175 13.3225 5.8475 12.3325 6.1875 11.3125 C6.8475 11.3125 7.5075 11.3125 8.1875 11.3125 C7.06895414 7.58635847 7.06895414 7.58635847 4.1875 5.3125 C3.8575 5.9725 3.5275 6.6325 3.1875 7.3125 C1.69010417 6.04296875 0.19270833 4.7734375 -1.3046875 3.50390625 C-2.81844079 2.2246848 -2.81844079 2.2246848 -4.8125 1.3125 C-3.8125 0.3125 -3.8125 0.3125 0 0 Z " fill="#2B62DB" transform="translate(141.8125,103.6875)"/>
<path d="M0 0 C5.06623768 4.23816537 9.80038069 8.67408963 14.4375 13.375 C15.07365234 14.01566406 15.70980469 14.65632813 16.36523438 15.31640625 C17.91250332 16.87530879 19.45736492 18.43651416 21 20 C20.01 20.99 19.02 21.98 18 23 C17.34 22.34 16.68 21.68 16 21 C16.66 21 17.32 21 18 21 C18 20.34 18 19.68 18 19 C16.35 18.67 14.7 18.34 13 18 C12.67 16.68 12.34 15.36 12 14 C10.68 13.67 9.36 13.34 8 13 C7.9175 12.401875 7.835 11.80375 7.75 11.1875 C6.77938866 8.35655025 5.47953512 7.60440508 3 6 C2.01 5.34 1.02 4.68 0 4 C0 2.68 0 1.36 0 0 Z " fill="#2C62D5" transform="translate(43,102)"/>
<path d="M0 0 C1.32 0.66 2.64 1.32 4 2 C0.04 5.96 -3.92 9.92 -8 14 C-8.33 13.34 -8.66 12.68 -9 12 C-9.66 11.67 -10.32 11.34 -11 11 C-11.33 10.01 -11.66 9.02 -12 8 C-11.071875 7.896875 -10.14375 7.79375 -9.1875 7.6875 C-5.9322234 6.98538152 -4.91626613 6.62225892 -3 4 C-2.67 3.01 -2.34 2.02 -2 1 C-1.34 0.67 -0.68 0.34 0 0 Z " fill="#2C63D8" transform="translate(134,89)"/>
<path d="M0 0 C2.50498725 2.18306118 4.77328092 4.53611558 7 7 C3.88772805 7 1.05847848 6.54372951 -2 6 C-2 3 -2 3 -1 2 C-4.3 1.67 -7.6 1.34 -11 1 C-7.19239289 -2.80760711 -4.60359012 -2.1247339 0 0 Z " fill="#2A63D9" transform="translate(91,24)"/>
<path d="M0 0 C0.33 0.99 0.66 1.98 1 3 C0.01 3.33 -0.98 3.66 -2 4 C-2.0928125 5.175625 -2.0928125 5.175625 -2.1875 6.375 C-2.455625 7.24125 -2.72375 8.1075 -3 9 C-5.375 10.125 -5.375 10.125 -8 11 C-8.45375 11.556875 -8.9075 12.11375 -9.375 12.6875 C-11 14 -11 14 -14.6875 13.6875 C-15.780625 13.460625 -16.87375 13.23375 -18 13 C-18 12.01 -18 11.02 -18 10 C-16.515 10.99 -16.515 10.99 -15 12 C-11.23525874 11.94368977 -9.26301694 9.57718353 -6.73828125 7.00195312 C-6.24714844 6.48568359 -5.75601563 5.96941406 -5.25 5.4375 C-4.49009766 4.65729492 -4.49009766 4.65729492 -3.71484375 3.86132812 C-2.46965595 2.58089916 -1.23388498 1.29132446 0 0 Z " fill="#3661C7" transform="translate(87,117)"/>
<path d="M0 0 C4 4.75 4 4.75 4 7 C4.66 7 5.32 7 6 7 C5.67 8.32 5.34 9.64 5 11 C2.69 8.69 0.38 6.38 -2 4 C-3.98 4.66 -5.96 5.32 -8 6 C-8 4.68 -8 3.36 -8 2 C-5.36 1.34 -2.72 0.68 0 0 Z " fill="#2F63D6" transform="translate(89,40)"/>
<path d="M0 0 C0.33 0 0.66 0 1 0 C1.18175781 0.59167969 1.36351562 1.18335937 1.55078125 1.79296875 C2.97135301 6.25866357 4.56349159 9.97976113 7 14 C6.67 14.66 6.34 15.32 6 16 C-0.83678756 9.28529793 -0.83678756 9.28529793 -1.5 4.0625 C-1 1 -1 1 0 0 Z " fill="#2C66D3" transform="translate(41,20)"/>
<path d="M0 0 C0 5.70507479 -1.81562975 10.60836496 -5.5 14.9375 C-8 17 -8 17 -11 19 C-9.51076424 15.91464552 -7.83676058 12.99251302 -6.0625 10.0625 C-5.55847656 9.22847656 -5.05445313 8.39445312 -4.53515625 7.53515625 C-4.02855469 6.69855469 -3.52195313 5.86195312 -3 5 C-1.99932037 3.3337413 -0.99912267 1.66719275 0 0 Z " fill="#3262C2" transform="translate(136,106)"/>
<path d="M0 0 C4.08606416 0.65377027 5.49712774 2.40838558 8.125 5.5 C1.375 4.625 1.375 4.625 -0.875 3.5 C-2.54119446 3.4603287 -4.20891013 3.45615553 -5.875 3.5 C-4.03615216 1.04820288 -3.07235411 0.53432245 0 0 Z " fill="#3263CD" transform="translate(47.875,15.5)"/>
<path d="M0 0 C0.66 0.33 1.32 0.66 2 1 C-1.96 4.96 -5.92 8.92 -10 13 C-10.33 12.01 -10.66 11.02 -11 10 C-10.34 10 -9.68 10 -9 10 C-8.67 9.01 -8.34 8.02 -8 7 C-7.67 6.34 -7.34 5.68 -7 5 C-6.01 5 -5.02 5 -4 5 C-4 4.01 -4 3.02 -4 2 C-2.125 0.9375 -2.125 0.9375 0 0 Z " fill="#3462CC" transform="translate(55,71)"/>
<path d="M0 0 C1.65 0 3.3 0 5 0 C1.6189962 4.13621084 -1.66590534 7.81316569 -6 11 C-6 9.68 -6 8.36 -6 7 C-5.071875 6.6596875 -5.071875 6.6596875 -4.125 6.3125 C-1.38589791 4.62070165 -0.94975528 3.00755839 0 0 Z " fill="#2F61CB" transform="translate(99,124)"/>
<path d="M0 0 C2.3828125 0.0234375 2.3828125 0.0234375 5.125 0.375 C6.03507812 0.48585937 6.94515625 0.59671875 7.8828125 0.7109375 C8.93082031 0.85402344 8.93082031 0.85402344 10 1 C9.67 2.65 9.34 4.3 9 6 C8.4225 5.67 7.845 5.34 7.25 5 C4.80116138 3.72924102 4.80116138 3.72924102 1 4 C0.01 4.66 -0.98 5.32 -2 6 C-2 2 -2 2 0 0 Z " fill="#3563D1" transform="translate(67,57)"/>
<path d="M0 0 C2 3 2 3 2.8125 5.5 C4.30009964 8.63178872 6.02555948 9.35623024 9 11 C9 11.66 9 12.32 9 13 C3.97166693 11.56333341 1.83341092 9.25011637 -1 5 C-0.8125 2.125 -0.8125 2.125 0 0 Z " fill="#3863C9" transform="translate(124,142)"/>
<path d="M0 0 C4.13621084 3.3810038 7.81316569 6.66590534 11 11 C8.03820004 9.62487859 5.57856158 7.99630574 3 6 C2.01 5.34 1.02 4.68 0 4 C0 2.68 0 1.36 0 0 Z " fill="#3761CB" transform="translate(43,102)"/>
<path d="M0 0 C0.33 0.99 0.66 1.98 1 3 C-0.40445835 5.2636564 -2.1967913 7.0208685 -4 9 C-4.66 8.67 -5.32 8.34 -6 8 C-5.67 6.35 -5.34 4.7 -5 3 C-4.360625 2.87625 -3.72125 2.7525 -3.0625 2.625 C-2.0415625 2.315625 -2.0415625 2.315625 -1 2 C-0.67 1.34 -0.34 0.68 0 0 Z " fill="#3363CE" transform="translate(160,144)"/>
<path d="M0 0 C0.33 0.66 0.66 1.32 1 2 C-2.96 1.67 -6.92 1.34 -11 1 C-7.18406892 -2.81593108 -4.65624208 -1.92323042 0 0 Z " fill="#3659D0" transform="translate(91,24)"/>
<path d="M0 0 C1.14926266 0.95421808 2.29430541 1.91352045 3.4375 2.875 C4.07558594 3.40867187 4.71367187 3.94234375 5.37109375 4.4921875 C7 6 7 6 8 8 C2.25 6.25 2.25 6.25 0 4 C0 2.68 0 1.36 0 0 Z " fill="#3262D0" transform="translate(130,64)"/>
<path d="M0 0 C2.31 1.98 4.62 3.96 7 6 C6.01 6.495 6.01 6.495 5 7 C2.375 5.8125 2.375 5.8125 0 4 C0 2.68 0 1.36 0 0 Z " fill="#2B61DA" transform="translate(98,32)"/>
<path d="M0 0 C3.08089673 2.77280706 4.68775452 5.06326356 6 9 C3.08482708 7.92598892 1.22189824 7.22189824 -1 5 C-0.34 5 0.32 5 1 5 C0.67 3.35 0.34 1.7 0 0 Z " fill="#3262D0" transform="translate(154,118)"/>
<path d="M0 0 C1.98 0.495 1.98 0.495 4 1 C4 2.98 4 4.96 4 7 C3.67 6.34 3.34 5.68 3 5 C0.98330173 3.86649466 0.98330173 3.86649466 -1 3 C-0.67 2.01 -0.34 1.02 0 0 Z " fill="#2861F3" transform="translate(114,61)"/>
<path d="M0 0 C0.33 0.99 0.66 1.98 1 3 C1.99 2.67 2.98 2.34 4 2 C4.33 2.66 4.66 3.32 5 4 C4.34 4 3.68 4 3 4 C2.67 4.99 2.34 5.98 2 7 C1.67 6.01 1.34 5.02 1 4 C0.01 3.67 -0.98 3.34 -2 3 C-1.34 2.01 -0.68 1.02 0 0 Z " fill="#295CF1" transform="translate(143,151)"/>
<path d="M0 0 C0.33 0 0.66 0 1 0 C1 1.98 1 3.96 1 6 C2.32 5.67 3.64 5.34 5 5 C3.75 6.5625 3.75 6.5625 2 8 C-0.1875 7.6875 -0.1875 7.6875 -2 7 C-1.34 4.69 -0.68 2.38 0 0 Z " fill="#2B60D3" transform="translate(146,135)"/>
<path d="M0 0 C1.258125 -0.04125 2.51625 -0.0825 3.8125 -0.125 C4.52019531 -0.14820312 5.22789062 -0.17140625 5.95703125 -0.1953125 C8 0 8 0 11 2 C11 2.66 11 3.32 11 4 C10.505 3.67 10.01 3.34 9.5 3 C5.90909106 1.56363642 2.85543873 1.87148538 -1 2 C-0.67 1.34 -0.34 0.68 0 0 Z " fill="#325AC5" transform="translate(138,104)"/>
<path d="M0 0 C1.2065625 0.0309375 1.2065625 0.0309375 2.4375 0.0625 C0.7875 1.7125 -0.8625 3.3625 -2.5625 5.0625 C-3.125 3.125 -3.125 3.125 -3.5625 1.0625 C-2.5625 0.0625 -2.5625 0.0625 0 0 Z " fill="#2E62CD" transform="translate(117.5625,107.9375)"/>
<path d="M0 0 C0.99 0.33 1.98 0.66 3 1 C-0.465 3.97 -0.465 3.97 -4 7 C-4 5.68 -4 4.36 -4 3 C-3.01 2.67 -2.02 2.34 -1 2 C-0.67 1.34 -0.34 0.68 0 0 Z " fill="#3663CC" transform="translate(61,64)"/>
<path d="M0 0 C0.66 0 1.32 0 2 0 C2 0.66 2 1.32 2 2 C2.66 2.33 3.32 2.66 4 3 C3 4 3 4 -0.5625 4.0625 C-1.696875 4.041875 -2.83125 4.02125 -4 4 C-3.01 3.67 -2.02 3.34 -1 3 C-0.67 2.01 -0.34 1.02 0 0 Z " fill="#2F63CC" transform="translate(80,60)"/>
<path d="M0 0 C0.66 0 1.32 0 2 0 C2 0.66 2 1.32 2 2 C2.99 2.33 3.98 2.66 5 3 C6.1875 5.5625 6.1875 5.5625 7 8 C5.8274869 7.04882866 4.66212985 6.08882991 3.5 5.125 C2.8503125 4.59132813 2.200625 4.05765625 1.53125 3.5078125 C1.0259375 3.01023437 0.520625 2.51265625 0 2 C0 1.34 0 0.68 0 0 Z " fill="#3960C2" transform="translate(41,28)"/>
</svg>
